HIERARCHY
ROOT Hips
{
	OFFSET -338.882294 -555.210510 88.995560
	CHANNELS 6 Xposition Yposition Zposition Zrotation Yrotation Xrotation
	JOINT Spine
	{
		OFFSET 0.000000 2.080078 8.814247
		CHANNELS 6 Xposition Yposition Zposition Zrotation Yrotation Xrotation
		JOINT Spine1
		{
			OFFSET 0.000000 0.000000 8.844139
			CHANNELS 6 Xposition Yposition Zposition Zrotation Yrotation Xrotation
			JOINT Spine2
			{
				OFFSET 0.000000 0.000000 11.682266
				CHANNELS 6 Xposition Yposition Zposition Zrotation Yrotation Xrotation
				JOINT Spine3
				{
					OFFSET 0.000000 0.000000 11.746704
					CHANNELS 6 Xposition Yposition Zposition Zrotation Yrotation Xrotation
					JOINT Neck
					{
						OFFSET 0.000000 0.000000 17.658264
						CHANNELS 6 Xposition Yposition Zposition Zrotation Yrotation Xrotation
						JOINT Neck1
						{
							OFFSET 0.000000 0.000000 5.101517
							CHANNELS 6 Xposition Yposition Zposition Zrotation Yrotation Xrotation
							JOINT Head
							{
								OFFSET 0.000000 0.000000 5.101517
								CHANNELS 6 Xposition Yposition Zposition Zrotation Yrotation Xrotation
								JOINT HeadEnd
								{
									OFFSET 0.000000 0.000000 11.655090
									CHANNELS 6 Xposition Yposition Zposition Zrotation Yrotation Xrotation
									End Site
									{
										OFFSET 0.000000 0.000000 0.100006
									}
								}
							}
						}
					}
					JOINT RightShoulder
					{
						OFFSET -2.625397 0.000000 11.175217
						CHANNELS 6 Xposition Yposition Zposition Zrotation Yrotation Xrotation
						JOINT RightArm
						{
							OFFSET 0.000000 0.000000 10.434723
							CHANNELS 6 Xposition Yposition Zposition Zrotation Yrotation Xrotation
							JOINT RightForeArm
							{
								OFFSET 0.000000 0.000000 29.628418
								CHANNELS 6 Xposition Yposition Zposition Zrotation Yrotation Xrotation
								JOINT RightHand
								{
									OFFSET 0.000000 0.000000 22.857605
									CHANNELS 6 Xposition Yposition Zposition Zrotation Yrotation Xrotation
									JOINT RightHandThumb1
									{
										OFFSET -2.867310 -2.944275 3.959564
										CHANNELS 6 Xposition Yposition Zposition Zrotation Yrotation Xrotation
										JOINT RightHandThumb2
										{
											OFFSET 0.000000 0.000000 3.350403
											CHANNELS 6 Xposition Yposition Zposition Zrotation Yrotation Xrotation
											JOINT RightHandThumb3
											{
												OFFSET 0.000000 0.000000 3.756516
												CHANNELS 6 Xposition Yposition Zposition Zrotation Yrotation Xrotation
												JOINT RightHandThumb4
												{
													OFFSET 0.000000 0.000000 3.147339
													CHANNELS 6 Xposition Yposition Zposition Zrotation Yrotation Xrotation
													End Site
													{
														OFFSET 0.000000 0.000000 0.100006
													}
												}
											}
										}
									}
									JOINT RightHandIndex1
									{
										OFFSET -0.086761 -2.345276 10.030899
										CHANNELS 6 Xposition Yposition Zposition Zrotation Yrotation Xrotation
										JOINT RightHandIndex2
										{
											OFFSET 0.000000 0.000000 4.061096
											CHANNELS 6 Xposition Yposition Zposition Zrotation Yrotation Xrotation
											JOINT RightHandIndex3
											{
												OFFSET 0.000000 0.000000 3.248871
												CHANNELS 6 Xposition Yposition Zposition Zrotation Yrotation Xrotation
												JOINT RightHandIndex4
												{
													OFFSET 0.000000 0.000000 2.639709
													CHANNELS 6 Xposition Yposition Zposition Zrotation Yrotation Xrotation
													End Site
													{
														OFFSET 0.000000 0.000000 0.100006
													}
												}
											}
										}
									}
									JOINT RightHandMiddle1
									{
										OFFSET 0.104095 -0.006775 9.502945
										CHANNELS 6 Xposition Yposition Zposition Zrotation Yrotation Xrotation
										JOINT RightHandMiddle2
										{
											OFFSET 0.000000 0.000000 4.568726
											CHANNELS 6 Xposition Yposition Zposition Zrotation Yrotation Xrotation
											JOINT RightHandMiddle3
											{
												OFFSET 0.000000 0.000000 3.654984
												CHANNELS 6 Xposition Yposition Zposition Zrotation Yrotation Xrotation
												JOINT RightHandMiddle4
												{
													OFFSET 0.000000 0.000000 2.741241
													CHANNELS 6 Xposition Yposition Zposition Zrotation Yrotation Xrotation
													End Site
													{
														OFFSET 0.000000 0.000000 0.100006
													}
												}
											}
										}
									}
									JOINT RightHandRing1
									{
										OFFSET 0.086761 2.267456 8.921707
										CHANNELS 6 Xposition Yposition Zposition Zrotation Yrotation Xrotation
										JOINT RightHandRing2
										{
											OFFSET 0.000000 0.000000 4.061096
											CHANNELS 6 Xposition Yposition Zposition Zrotation Yrotation Xrotation
											JOINT RightHandRing3
											{
												OFFSET 0.000000 0.000000 3.654984
												CHANNELS 6 Xposition Yposition Zposition Zrotation Yrotation Xrotation
												JOINT RightHandRing4
												{
													OFFSET 0.000000 0.000000 2.741241
													CHANNELS 6 Xposition Yposition Zposition Zrotation Yrotation Xrotation
													End Site
													{
														OFFSET 0.000000 0.000000 0.100006
													}
												}
											}
										}
									}
									JOINT RightHandPinky1
									{
										OFFSET -0.173492 4.467224 7.976990
										CHANNELS 6 Xposition Yposition Zposition Zrotation Yrotation Xrotation
										JOINT RightHandPinky2
										{
											OFFSET 0.000000 0.000000 3.350403
											CHANNELS 6 Xposition Yposition Zposition Zrotation Yrotation Xrotation
											JOINT RightHandPinky3
											{
												OFFSET 0.000000 0.000000 2.842758
												CHANNELS 6 Xposition Yposition Zposition Zrotation Yrotation Xrotation
												JOINT RightHandPinky4
												{
													OFFSET 0.000000 0.000000 2.639709
													CHANNELS 6 Xposition Yposition Zposition Zrotation Yrotation Xrotation
													End Site
													{
														OFFSET 0.000000 0.000000 0.100006
													}
												}
											}
										}
									}
									JOINT RightForeArmEnd
									{
										OFFSET 0.000000 0.000000 0.000000
										CHANNELS 6 Xposition Yposition Zposition Zrotation Yrotation Xrotation
										End Site
										{
											OFFSET 0.000000 0.000000 0.100006
										}
									}
								}
								JOINT RightArmEnd
								{
									OFFSET 0.000000 0.000000 0.000000
									CHANNELS 6 Xposition Yposition Zposition Zrotation Yrotation Xrotation
									End Site
									{
										OFFSET 0.000000 0.000000 0.100006
									}
								}
							}
						}
					}
					JOINT LeftShoulder
					{
						OFFSET 2.625397 0.000000 11.175217
						CHANNELS 6 Xposition Yposition Zposition Zrotation Yrotation Xrotation
						JOINT LeftArm
						{
							OFFSET 0.000000 0.000000 10.813629
							CHANNELS 6 Xposition Yposition Zposition Zrotation Yrotation Xrotation
							JOINT LeftForeArm
							{
								OFFSET 0.000000 0.000000 28.724777
								CHANNELS 6 Xposition Yposition Zposition Zrotation Yrotation Xrotation
								JOINT LeftHand
								{
									OFFSET 0.644379 0.328857 25.716171
									CHANNELS 6 Xposition Yposition Zposition Zrotation Yrotation Xrotation
									JOINT LeftHandThumb1
									{
										OFFSET 2.867310 -2.944275 3.959564
										CHANNELS 6 Xposition Yposition Zposition Zrotation Yrotation Xrotation
										JOINT LeftHandThumb2
										{
											OFFSET 0.000000 0.000000 3.350403
											CHANNELS 6 Xposition Yposition Zposition Zrotation Yrotation Xrotation
											JOINT LeftHandThumb3
											{
												OFFSET 0.000000 0.000000 3.756516
												CHANNELS 6 Xposition Yposition Zposition Zrotation Yrotation Xrotation
												JOINT LeftHandThumb4
												{
													OFFSET 0.000000 0.000000 3.100006
													CHANNELS 6 Xposition Yposition Zposition Zrotation Yrotation Xrotation
													End Site
													{
														OFFSET 0.000000 0.000000 0.100006
													}
												}
											}
										}
									}
									JOINT LeftHandIndex1
									{
										OFFSET 0.086761 -2.345276 10.030899
										CHANNELS 6 Xposition Yposition Zposition Zrotation Yrotation Xrotation
										JOINT LeftHandIndex2
										{
											OFFSET 0.000000 0.000000 4.061096
											CHANNELS 6 Xposition Yposition Zposition Zrotation Yrotation Xrotation
											JOINT LeftHandIndex3
											{
												OFFSET 0.000000 0.000000 3.248871
												CHANNELS 6 Xposition Yposition Zposition Zrotation Yrotation Xrotation
												JOINT LeftHandIndex4
												{
													OFFSET 0.000000 0.000000 2.639709
													CHANNELS 6 Xposition Yposition Zposition Zrotation Yrotation Xrotation
													End Site
													{
														OFFSET 0.000000 0.000000 0.100006
													}
												}
											}
										}
									}
									JOINT LeftHandMiddle1
									{
										OFFSET -0.104095 -0.006775 9.502945
										CHANNELS 6 Xposition Yposition Zposition Zrotation Yrotation Xrotation
										JOINT LeftHandMiddle2
										{
											OFFSET 0.000000 0.000000 4.568726
											CHANNELS 6 Xposition Yposition Zposition Zrotation Yrotation Xrotation
											JOINT LeftHandMiddle3
											{
												OFFSET 0.000000 0.000000 3.654984
												CHANNELS 6 Xposition Yposition Zposition Zrotation Yrotation Xrotation
												JOINT LeftHandMiddle4
												{
													OFFSET 0.000000 0.000000 2.741241
													CHANNELS 6 Xposition Yposition Zposition Zrotation Yrotation Xrotation
													End Site
													{
														OFFSET 0.000000 0.000000 0.100006
													}
												}
											}
										}
									}
									JOINT LeftHandRing1
									{
										OFFSET -0.086761 2.267456 8.921707
										CHANNELS 6 Xposition Yposition Zposition Zrotation Yrotation Xrotation
										JOINT LeftHandRing2
										{
											OFFSET 0.000000 0.000000 4.061096
											CHANNELS 6 Xposition Yposition Zposition Zrotation Yrotation Xrotation
											JOINT LeftHandRing3
											{
												OFFSET 0.000000 0.000000 3.654984
												CHANNELS 6 Xposition Yposition Zposition Zrotation Yrotation Xrotation
												JOINT LeftHandRing4
												{
													OFFSET 0.000000 0.000000 2.741241
													CHANNELS 6 Xposition Yposition Zposition Zrotation Yrotation Xrotation
													End Site
													{
														OFFSET 0.000000 0.000000 0.100006
													}
												}
											}
										}
									}
									JOINT LeftHandPinky1
									{
										OFFSET 0.173492 4.467224 7.976990
										CHANNELS 6 Xposition Yposition Zposition Zrotation Yrotation Xrotation
										JOINT LeftHandPinky2
										{
											OFFSET 0.000000 0.000000 3.350403
											CHANNELS 6 Xposition Yposition Zposition Zrotation Yrotation Xrotation
											JOINT LeftHandPinky3
											{
												OFFSET 0.000000 0.000000 2.842758
												CHANNELS 6 Xposition Yposition Zposition Zrotation Yrotation Xrotation
												JOINT LeftHandPinky4
												{
													OFFSET 0.000000 0.000000 2.639709
													CHANNELS 6 Xposition Yposition Zposition Zrotation Yrotation Xrotation
													End Site
													{
														OFFSET 0.000000 0.000000 0.100006
													}
												}
											}
										}
									}
									JOINT LeftForeArmEnd
									{
										OFFSET 0.000000 0.000000 0.000000
										CHANNELS 6 Xposition Yposition Zposition Zrotation Yrotation Xrotation
										End Site
										{
											OFFSET 0.000000 0.000000 0.100006
										}
									}
								}
								JOINT LeftArmEnd
								{
									OFFSET 0.000000 0.000000 0.000000
									CHANNELS 6 Xposition Yposition Zposition Zrotation Yrotation Xrotation
									End Site
									{
										OFFSET 0.000000 0.000000 0.100006
									}
								}
							}
						}
					}
				}
			}
		}
	}
	JOINT RightUpLeg
	{
		OFFSET -11.289948 0.000000 0.000000
		CHANNELS 6 Xposition Yposition Zposition Zrotation Yrotation Xrotation
		JOINT RightLeg
		{
			OFFSET 0.000000 0.000000 -38.200321
			CHANNELS 6 Xposition Yposition Zposition Zrotation Yrotation Xrotation
			JOINT RightFoot
			{
				OFFSET 0.000000 0.000000 -39.900856
				CHANNELS 6 Xposition Yposition Zposition Zrotation Yrotation Xrotation
				JOINT RightToeBase
				{
					OFFSET 0.000000 -15.261658 0.000001
					CHANNELS 6 Xposition Yposition Zposition Zrotation Yrotation Xrotation
					JOINT RightToeBaseEnd
					{
						OFFSET 0.000000 -7.370728 0.000001
						CHANNELS 6 Xposition Yposition Zposition Zrotation Yrotation Xrotation
						End Site
						{
							OFFSET 0.000000 0.000000 0.100000
						}
					}
				}
				JOINT RightLegEnd
				{
					OFFSET 0.000000 0.000000 0.000000
					CHANNELS 6 Xposition Yposition Zposition Zrotation Yrotation Xrotation
					End Site
					{
						OFFSET 0.000000 0.000000 0.100000
					}
				}
			}
			JOINT RightUpLegEnd
			{
				OFFSET 0.000000 0.000000 0.000000
				CHANNELS 6 Xposition Yposition Zposition Zrotation Yrotation Xrotation
				End Site
				{
					OFFSET 0.000000 0.000000 0.099998
				}
			}
		}
	}
	JOINT LeftUpLeg
	{
		OFFSET 11.315674 0.000000 0.000000
		CHANNELS 6 Xposition Yposition Zposition Zrotation Yrotation Xrotation
		JOINT LeftLeg
		{
			OFFSET 0.000000 0.000000 -38.200321
			CHANNELS 6 Xposition Yposition Zposition Zrotation Yrotation Xrotation
			JOINT LeftFoot
			{
				OFFSET 0.000000 0.000000 -39.900856
				CHANNELS 6 Xposition Yposition Zposition Zrotation Yrotation Xrotation
				JOINT LeftToeBase
				{
					OFFSET 0.000000 -15.261658 0.000001
					CHANNELS 6 Xposition Yposition Zposition Zrotation Yrotation Xrotation
					JOINT LeftToeBaseEnd
					{
						OFFSET 0.000000 -7.539978 0.000001
						CHANNELS 6 Xposition Yposition Zposition Zrotation Yrotation Xrotation
						End Site
						{
							OFFSET 0.000000 0.000000 0.100000
						}
					}
				}
				JOINT LeftLegEnd
				{
					OFFSET 0.000000 0.000000 0.000000
					CHANNELS 6 Xposition Yposition Zposition Zrotation Yrotation Xrotation
					End Site
					{
						OFFSET 0.000000 0.000000 0.100000
					}
				}
			}
			JOINT LeftUpLegEnd
			{
				OFFSET 0.000000 0.000000 0.000000
				CHANNELS 6 Xposition Yposition Zposition Zrotation Yrotation Xrotation
				End Site
				{
					OFFSET 0.000000 0.000000 0.099998
				}
			}
		}
	}
}
MOTION
Frames: 2
Frame Time: 0.016667
18.699982 -11.211670 87.970306 3.094826 0.209539 -13.308481 0.000005 2.080071 8.814249 -0.011150 -1.080582 7.330289 -0.000006 -0.000030 8.844137 0.256432 0.590598 3.166645 -0.000012 -0.000021 11.682274 1.050335 0.982080 8.484996 -0.000001 -0.000049 11.746712 0.735847 0.089151 7.499185 0.000008 -0.000010 17.658272 2.010919 -15.374930 10.018552 0.000003 0.000005 5.101502 7.492580 -3.669710 -0.529705 -0.000019 0.000004 5.101551 -0.166127 -0.515098 -17.632379 -0.000004 0.000001 11.655065 -0.000000 -0.000000 -0.000001 -2.625421 0.000002 11.175227 12.093880 -89.696141 0.617067 -0.000011 0.000004 10.434753 -52.352184 -46.408762 53.652567 0.000008 0.000008 29.628431 22.501727 0.173024 25.504449 -0.000010 -0.000047 22.857559 -3.504692 -2.461172 -2.106672 -2.867300 -2.944229 3.959579 31.788025 -23.322029 42.844247 0.000000 0.000023 3.350410 -26.178949 11.072161 -44.741742 -0.000027 -0.000008 3.756481 -17.287806 9.935982 -30.477653 -0.000015 0.000001 3.147343 -0.000000 -0.000001 0.000001 -0.086777 -2.345277 10.030930 -36.546290 -59.603748 30.591400 -0.000019 0.000000 4.061115 -2.811763 -44.803022 8.023428 -0.000019 0.000027 3.248890 -3.311765 -44.803043 8.023419 0.000012 0.000004 2.639719 -0.000002 -0.000002 0.000004 0.104092 -0.006788 9.502922 -23.911492 -58.439208 22.525392 -0.000011 -0.000015 4.568733 -0.586703 -42.745588 2.776361 -0.000021 0.000003 3.654982 -1.086712 -42.745578 2.776368 0.000004 0.000008 2.741250 0.000001 0.000000 -0.000001 0.086742 2.267429 8.921730 -8.401885 -59.998861 13.764138 -0.000029 -0.000002 4.061117 0.211852 -41.996825 -3.156585 0.000014 0.000016 3.654970 1.211865 -41.996842 -3.156588 -0.000011 0.000005 2.741253 0.000001 -0.000002 0.000003 -0.173485 4.467230 7.977001 8.434677 -57.776898 3.869484 0.000031 -0.000020 3.350403 1.077678 -38.329498 -8.839979 0.000059 -0.000005 2.842758 3.077677 -38.329560 -8.839973 -0.000013 -0.000020 2.639722 0.000003 0.000001 0.000004 0.000005 0.000008 0.000002 -0.000003 0.000000 -0.000000 -0.000001 -0.000002 -0.000016 -0.000000 0.000001 0.000001 2.625390 -0.000015 11.175238 -10.359235 87.232205 -0.350960 0.000000 0.000013 10.813644 47.849553 47.678180 49.851259 -0.000042 0.000072 28.724783 -8.186038 0.279865 38.128694 0.644327 0.328923 25.716160 0.020512 -5.953746 -8.796945 2.867285 -2.944305 3.959595 -32.486883 26.400044 38.690580 0.000015 0.000015 3.350391 32.871166 -10.485713 -55.441772 0.000000 0.000015 3.756519 21.866967 -10.798264 -37.858878 -0.000008 -0.000005 3.100010 -0.000000 -0.000000 0.000001 0.086750 -2.345272 10.030909 10.994696 81.857591 1.588449 0.000023 0.000011 4.061104 -6.532801 57.549098 -12.769121 0.000000 0.000011 3.248863 -7.032812 57.549118 -12.769097 -0.000004 0.000008 2.639725 -0.000002 -0.000000 -0.000000 -0.104050 -0.006777 9.502968 34.610071 78.704803 29.807267 0.000023 0.000003 4.568708 -1.959317 56.626202 -4.563239 0.000001 -0.000017 3.654978 -2.459338 56.626196 -4.561575 0.000009 -0.000058 2.741246 -0.000001 -0.000000 -0.000000 -0.086725 2.267433 8.921740 72.946004 74.849905 74.129259 0.000038 -0.000032 4.061106 2.467104 59.782276 6.027915 -0.000019 0.000023 3.655008 3.467168 59.782317 6.027989 -0.000001 0.000005 2.741267 -0.000000 0.000001 0.000001 0.173500 4.467232 7.977008 73.278525 66.208152 82.966977 -0.000008 -0.000008 3.350418 8.104860 58.000361 18.124233 0.000023 0.000008 2.842781 10.104861 58.000423 18.124226 -0.000003 -0.000010 2.639703 0.000002 0.000000 0.000001 0.000001 0.000011 0.000038 -0.000002 -0.000002 -0.000000 0.000014 -0.000001 -0.000028 0.000000 -0.000002 -0.000000 -11.289968 -0.000058 0.000006 -10.021417 2.157141 6.218235 -0.000034 -0.000028 -38.200321 -0.542569 0.185538 18.936735 -0.000016 -0.000089 -39.900864 -8.901917 0.295747 13.711549 0.000041 -15.261738 0.000021 0.857113 0.830731 -19.807730 0.000015 -7.370774 0.000001 -0.000002 -0.000000 -0.000000 -0.000018 -0.000052 0.000000 -0.000002 -0.000000 0.000000 -0.000026 -0.000004 -0.000003 0.000000 0.000000 -0.000000 11.315630 -0.000166 0.000016 -14.853647 2.265567 2.015980 -0.000032 -0.000065 -38.200317 0.532368 -0.210102 21.535889 -0.000013 -0.000035 -39.900864 2.784886 -1.069971 13.287425 -0.000013 -15.261714 0.000036 -0.468020 -0.278440 -23.733137 -0.000043 -7.539979 0.000002 0.000000 0.000000 -0.000000 -0.000034 0.000002 -0.000000 -0.000000 0.000000 0.000002 -0.000032 -0.000005 0.000005 0.000001 -0.000000 -0.000000 
18.717834 -11.246765 88.060272 2.431588 0.322243 -13.132780 -0.000008 2.080050 8.814246 -0.036297 -1.150771 7.295222 -0.000010 -0.000009 8.844133 0.254686 0.566953 3.125923 -0.000001 -0.000010 11.682272 1.103257 0.981469 8.391564 -0.000015 -0.000092 11.746727 0.766633 0.089068 7.349776 0.000004 -0.000020 17.658241 1.899340 -15.032654 9.646586 0.000012 -0.000007 5.101522 7.225007 -3.505377 -0.683386 0.000000 0.000024 5.101516 -0.202954 -0.414693 -17.509431 0.000007 0.000005 11.655060 -0.000001 -0.000002 0.000000 -2.625412 -0.000036 11.175201 12.226110 -89.657387 0.586522 -0.000015 -0.000010 10.434715 -52.492101 -46.150188 53.757021 -0.000002 0.000008 29.628424 22.522702 0.177490 25.866353 -0.000031 -0.000071 22.857605 -3.058076 -2.541770 -2.154224 -2.867304 -2.944244 3.959534 31.788049 -23.322038 42.844257 0.000008 0.000015 3.350410 -26.178910 11.072155 -44.741714 0.000004 0.000015 3.756512 -17.287808 9.935982 -30.477667 -0.000015 -0.000002 3.147316 -0.000000 -0.000002 0.000001 -0.086792 -2.345261 10.030891 -37.196770 -60.036304 31.165757 -0.000021 -0.000010 4.061127 -2.885843 -45.172351 8.128232 0.000032 0.000001 3.248882 -3.385840 -45.172334 8.128221 0.000002 0.000000 2.639732 -0.000000 0.000000 0.000001 0.104076 -0.006788 9.502914 -24.357810 -58.919527 22.921345 0.000017 0.000008 4.568727 -0.611539 -43.117990 2.812813 -0.000021 0.000012 3.654997 -1.111533 -43.117970 2.812821 0.000003 0.000007 2.741262 -0.000002 0.000000 0.000004 0.086727 2.267462 8.921738 -8.655792 -60.573929 14.002153 -0.000004 -0.000018 4.061096 0.242482 -42.405288 -3.202180 0.000005 0.000017 3.654982 1.242491 -42.405311 -3.202186 -0.000005 -0.000007 2.741271 0.000000 -0.000004 -0.000001 -0.173492 4.467245 7.977005 8.461049 -58.394641 3.966519 -0.000034 -0.000026 3.350403 1.155889 -38.719933 -8.965533 0.000010 -0.000010 2.842766 3.155892 -38.720312 -8.965586 0.000011 -0.000004 2.639707 0.000000 0.000000 0.000002 -0.000003 0.000007 -0.000001 -0.000001 0.000000 -0.000003 0.000010 0.000024 0.000028 -0.000004 -0.000000 -0.000000 2.625387 -0.000030 11.175212 -10.283927 87.212766 -0.325442 0.000042 0.000019 10.813644 47.988762 48.495497 49.062034 -0.000054 0.000027 28.724813 -8.112135 0.311848 37.782189 0.644312 0.328818 25.716164 -0.876010 -5.994412 -8.684719 2.867281 -2.944275 3.959579 -32.486859 26.400037 38.690590 -0.000015 0.000031 3.350433 32.871207 -10.485718 -55.441810 -0.000008 0.000031 3.756504 21.866951 -10.798280 -37.858861 0.000013 0.000003 3.100023 -0.000002 0.000003 0.000001 0.086704 -2.345274 10.030906 11.096757 81.919103 1.631061 0.000011 -0.000006 4.061127 -6.553978 57.597039 -12.794198 0.000015 -0.000004 3.248901 -7.053956 57.597073 -12.793869 -0.000015 0.000010 2.639733 -0.000002 0.000001 0.000001 -0.104080 -0.006777 9.502937 34.825127 78.762702 29.995404 0.000010 -0.000022 4.568729 -1.966862 56.679143 -4.573725 -0.000008 -0.000024 3.654995 -2.466744 56.676582 -4.570439 -0.000001 -0.000007 2.741246 0.000003 -0.000000 -0.000001 -0.086791 2.267388 8.921716 73.457462 74.888284 74.743402 -0.000004 0.000002 4.061111 2.488771 59.885132 6.053001 0.000004 -0.000013 3.654972 3.489526 59.885138 6.054722 -0.000006 0.000001 2.741247 0.000000 -0.000000 0.000001 0.173454 4.467216 7.976974 73.433345 66.233485 83.586380 0.000008 -0.000002 3.350403 8.174098 58.112062 18.205823 -0.000011 -0.000025 2.842773 10.174112 58.112062 18.205833 0.000000 -0.000007 2.639678 0.000002 0.000001 0.000000 -0.000016 -0.000063 0.000006 0.000000 0.000001 0.000001 0.000005 0.000007 0.000019 -0.000001 0.000001 -0.000001 -11.289980 0.000014 0.000003 -9.672998 1.927567 6.470858 -0.000036 -0.000013 -38.200344 -0.555246 0.180420 18.008067 -0.000003 0.000004 -39.900871 -8.646492 0.478066 14.279351 0.000010 -15.261693 0.000026 0.866964 0.835358 -19.677539 0.000005 -7.370780 0.000001 -0.000001 0.000000 -0.000000 -0.000023 -0.000059 0.000002 -0.000000 -0.000000 -0.000001 -0.000033 0.000005 0.000001 -0.000001 -0.000000 0.000000 11.315628 -0.000038 0.000007 -14.489884 2.068254 2.231743 -0.000025 -0.000031 -38.200325 0.526553 -0.203575 21.116660 0.000003 0.000028 -39.900856 3.059636 -1.066724 13.350866 -0.000045 -15.261724 0.000017 -0.465077 -0.304902 -23.624839 -0.000032 -7.539987 0.000002 0.000002 0.000000 -0.000000 -0.000023 -0.000056 -0.000000 -0.000001 0.000001 0.000001 -0.000033 -0.000009 0.000005 0.000002 0.000000 0.000001 
